**ABCDEFGHIJKLMNOPQRSTUVWXYZabcdefghijklmnopqrstuvwxyz**************************
**PARASOLID !"#$%&'()*+,-./:;<=>?@[\]^_`{|}~0123456789**************************
**PART1;
MC=Sun Sparc;
MC_MODEL=sun4u;
MC_ID=clubmed.ethz.ch;
OS=sunos;
OS_RELEASE=5.8 generic_108528-12;
FRU=mdc_ugii_v7.0_djl_can_vrh;
APPL=unigraphics;
SITE=unknown;
USER=okoenig;
FORMAT=text;
GUISE=transmit;
KEY=felyx-3d-mixed-new2;
FILE=/home/st-staff/okoenig/tmp/felyx_paper/performance_tests/models/felyx-3d-mixed-new2.x_t;
DATE=30-aug-2002;
**PART2;
SCH=SCH_1300166_13006;
USFLD_SIZE=0;
**PART3;
**END_OF_HEADER*****************************************************************
T51 : TRANSMIT FILE created by modeller version 130016617 SCH_1300166_130060 10
 1 26 0 0 0 0 0 0 0 1e3 1e-8 0 0 0 1 0 1 2 11 2 25 0 1 3 4 1 5 0 0 0 12 3 308 6
 7 0 0 0 0 1e3 1e-8 2 8 0 1 0 1 1 9 10 11 12 13 14 15 100 4 26 2 0 0 1 0 0 0 1 0
 0 0 1 -.0190265625 -.001126666666666672 0 1 1 ?11 5 23 0 1 8 16 1 17 2 17 0 12
 8 489 18 19 0 0 0 0 1e3 1e-8 5 20 3 1 0 1 1 21 22 23 24 25 26 27 100 16 24 5 0
 0 -.5 .866025403784437 0 -.866025403784437 -.5 0 0 0 1 -.01902656249999715 -.00
1126666666671668 0 1 3 ?11 17 21 0 1 8 28 1 29 5 29 5 100 28 22 17 0 0 1 0 0 0 1
 0 0 0 1 -.0190265625 -.00112666666667 0 1 1 ?11 29 19 0 1 8 30 1 31 17 0 17 100
 30 20 29 0 0 -.5 -.86602540378444 0 .86602540378444 -.5 0 0 0 1 -.0190265625000
029 -.001126666666671656 0 1 3 ?11 31 17 0 1 20 32 1 33 29 33 0 12 20 372 34 35
 0 0 0 0 1e3 1e-8 31 36 8 1 0 1 1 37 38 39 40 41 42 43 100 32 18 31 0 0 1 0 0 0
 1 0 0 0 1 -.0190265625 -.00112666666667 0 1 1 ?11 33 15 0 1 20 44 1 45 31 45 31
 100 44 16 33 0 0 -.5 .866025403784437 0 -.866025403784437 -.5 0 0 0 1 -.0190265
6249999715 -.001126666666671668 0 1 3 ?11 45 13 0 1 20 46 1 47 33 0 33 100 46 14
 45 0 0 -.5 -.86602540378444 0 .86602540378444 -.5 0 0 0 1 -.0190265625000029 -.
001126666666671656 0 1 3 ?11 47 11 0 1 36 48 1 49 45 49 0 12 36 506 50 51 0 0 0
 0 1e3 1e-8 47 52 20 1 0 1 1 53 54 55 56 57 58 59 100 48 12 47 0 0 1 0 0 0 1 0 0
 0 1 -.0190265625 -.00112666666667 0 1 1 ?11 49 9 0 1 36 60 1 61 47 61 47 100 60
 10 49 0 0 -.5 -.86602540378444 0 .86602540378444 -.5 0 0 0 1 -.0190265625000029
 -.001126666666671656 0 1 3 ?11 61 7 0 1 36 62 1 63 49 0 49 100 62 8 61 0 0 -.5
 .866025403784437 0 -.866025403784437 -.5 0 0 0 1 -.01902656249999715 -.00112666
6666671668 0 1 3 ?11 63 5 0 1 52 64 1 65 61 65 0 12 52 380 66 67 0 0 0 0 1e3 1e-
8 63 0 36 1 0 1 1 68 69 70 71 72 73 74 100 64 6 63 0 0 1 0 0 0 1 0 0 0 1 -.01902
65625 -.00112666666667 0 1 1 ?11 65 3 0 1 52 75 1 76 63 76 63 100 75 4 65 0 0 -.
5 -.86602540378444 0 .86602540378444 -.5 0 0 0 1 -.0190265625000029 -.0011266666
66671656 0 1 3 ?11 76 1 0 1 52 77 1 0 65 0 65 100 77 2 76 0 0 -.5 .8660254037844
37 0 -.866025403784437 -.5 0 0 0 1 -.01902656249999715 -.001126666666671668 0 1
 3 ?81 2 66 321 78 52 0 0 0 0 79 80 70 67 0 52 0 0 4 3 20 4 81 81 1 T13 68 274 0
 52 0 82 0 0 83 0 50 69 91 0 84 85 0 0 +-.003867513459481245 -.0599679368558886
 .05 .960443816657048 -.278473831885946 0 .278473831885946 .960443816657048 0 30
 70 252 0 73 86 0 0 +.009 -.01558845726811985 290067554008081e-32 .5 -.866025403
784439 1150169343672888e-31 29 71 249 0 74 87 0 .045 -.0779422863405995 10822794
06755496e-32 19 72 302 0 52 83 0 88 V16 73 250 0 ?89 0 90 70 0 0 52 18 74 247 0
 91 0 92 71 ?52 17 91 0 93 94 95 74 96 97 0 89 -18 92 116 0 98 74 99 87 ?52 17 9
8 0 100 101 96 92 102 103 0 104 -18 99 43 0 101 92 105 106 ?52 29 87 118 0 92 10
6 71 -.0199519052838328 -.1154422863405996 .02707749250789955 29 106 56 0 99 107
 87 -.0199519052838328 -.1154422863405996 107696897754123e-31 29 107 225 0 105 1
08 106 -.003867513459481275 -.0599679368558886 7105427357601e-30 18 105 159 0 10
9 99 110 107 ?52 29 108 311 0 110 111 107 .045 -.0779422863405995 .0270774925078
996 18 110 291 0 95 105 112 108 ?52 29 111 313 0 112 0 108 .025 -.04330127018922
195 501706047489443e-32 18 112 287 0 94 110 0 111 ?52 17 94 0 93 95 91 112 89 73
 0 113 -15 93 301 0 94 82 0 17 95 0 93 91 94 110 113 114 0 96 +17 89 0 115 116 1
17 74 94 73 0 118 +17 113 0 119 109 102 112 95 114 0 117 -15 119 267 0 113 120 0
 17 109 0 119 121 113 105 117 122 0 123 +17 102 0 119 113 121 110 98 103 0 0 +16
 114 285 0 ?95 103 97 124 0 0 52 17 117 0 115 89 123 112 109 122 0 0 -15 115 36
 0 117 125 0 17 123 0 115 117 116 105 126 127 0 128 -16 122 37 0 ?109 90 129 130
 0 0 52 16 90 62 0 ?101 73 122 86 0 0 52 16 129 40 0 ?118 122 127 131 0 0 52 30
 130 55 0 122 132 131 0 +.025 -.0433012701892219 34529035099548e-31 -.8660254037
84438 -.5 883533507082001e-31 30 132 211 0 133 134 130 0 +-.00921886155286117 -.
0784244975756452 .00900880117122489 -.2521417127921825 -.869625513221483 .424471
4636162215 30 131 52 0 129 130 135 0 +.045 -.0779422863405995 104636933205843e-3
1 .866025403784439 .5 1507208710739515e-32 30 135 50 0 127 131 86 0 +-.003867513
459481245 -.0599679368558886 639801520022814e-32 -.278473831885946 -.96044381665
7048 756880946450693e-31 16 127 42 0 ?126 129 133 135 0 0 52 30 86 80 0 90 135 7
0 0 +-.0199519052838328 -.1154422863405996 .05 0 0 -1 17 126 0 136 104 128 99 12
3 127 0 0 +16 133 142 0 ?121 127 103 132 0 0 52 17 121 0 119 102 109 92 128 133
 0 0 +16 103 153 0 ?102 133 114 134 0 0 52 30 134 216 0 103 124 132 0 +-.2148076
211353315 -.2279422863405995 .0270774925078996 .866025403784439 .5 0 30 124 305
 0 114 137 134 0 +.025 -.0433012701892219 -1221245327087674e-33 .414051999829528
5 -.717159100680243 .560574496163243 30 137 306 0 97 0 124 0 +.045 -.07794228634
05995 .05 0 0 1 16 97 284 0 ?96 114 0 137 0 0 52 17 96 0 100 98 118 110 91 97 0
 102 +15 100 120 0 118 138 0 17 118 0 100 96 101 74 116 129 0 0 +17 101 0 100 11
8 98 99 104 90 0 116 +17 116 0 115 123 89 99 118 129 0 126 -17 104 0 136 128 126
 92 101 90 0 121 -15 136 126 0 128 84 0 17 128 0 136 126 104 105 121 133 0 0 -14
 84 79 139 ?138 120 136 68 69 -0 0 138 120 88 81 1 139 376 140 84 141 0 142 143
 144 14 138 75 143 ?125 84 100 68 85 -0 0 125 84 88 14 120 190 142 ?84 82 119 68
 145 +0 0 84 82 88 13 88 303 0 0 0 0 0 0 72 82 14 82 299 146 ?120 0 93 68 147 -0
 0 120 0 88 81 1 146 372 140 82 148 0 0 142 149 50 147 304 0 82 0 145 0 +0 0 -.0
57 -.866025403784439 -.5 0 .5 -.866025403784439 0 50 145 205 0 120 147 150 0 +-.
2348076211353315 -.193301270189222 7105427357601e-30 -.2802872480816215 .4854717
54391031 .828103999659056 0 -.862683662628021 .505743905781081 50 150 49 0 125 1
45 85 0 +.009 -.01558845726811985 290067554008081e-32 -622682009895124e-31 96859
5534333907e-31 1 0 -1 968595534333907e-31 14 125 35 151 ?0 138 115 68 150 -0 0 0
 138 88 50 85 89 0 138 150 69 0 +.045 -.0779422863405995 .05 -.5 .86602540378443
9 0 -.866025403784439 -.5 0 81 1 151 380 140 125 152 0 143 0 153 80 1 140 0 154
 8001 0 0 0 0 3 5 0 0 0 FFFFTFTFFFFFFF2 81 1 152 379 155 125 0 151 156 0 157 81
 1 143 378 140 138 156 0 139 151 158 83 3 153 .40015 .40015 .40015 81 1 156 377
 155 138 0 143 141 152 159 83 3 158 .40015 .40015 .40015 80 1 155 160 161 8015 0
 0 0 0 3 5 0 0 0 FFFFTFFFFFFFFF2 81 1 141 375 155 84 0 139 162 156 163 83 1 159
 0 81 1 162 373 155 120 0 142 148 141 164 83 1 163 0 81 1 142 374 140 120 162 0
 146 139 165 81 1 148 371 155 82 0 146 0 162 166 83 1 164 0 83 1 166 0 83 3 165
 .40015 .40015 .40015 79 21 161 SDL/TYSA_TRANSLUCENCY83 1 157 0 79 15 154 SDL/TY
SA_COLOUR83 3 149 .827451 .5137255 .5058824 83 3 144 .40015 .40015 .40015 19 83
 93 0 52 0 72 68 S74 20 81 3 0 66 152 151 0 0 0 0 0 0 0 0 0 0 0 0 0 0 0 0 0 80 2
 78 167 168 8004 0 0 0 0 3 5 0 0 0 FFTFFFFFFFFFFF2 3 83 1 79 2710 84 8 80 Kg/Cu
 M 79 16 168 SDL/TYSA_DENSITY81 2 50 418 78 36 0 0 0 0 169 170 70 51 0 36 0 0 4
 3 20 4 171 171 1 T13 53 3 0 36 0 172 0 0 173 0 50 54 65 0 172 174 0 0 +-.149807
6211353314 -.3405255888325765 21316282072803e-30 2732856676000385e-32 -473344661
263647e-31 -1 0 1 -473344661263647e-31 30 55 339 0 58 175 0 0 +.11 -.19052558883
25765 .05 0 0 -1 29 56 353 0 59 176 0 .045 -.0779422863405996 14210854715202e-30
 19 57 1 0 36 173 0 177 V16 58 337 0 ?178 0 179 55 0 0 36 18 59 351 0 180 0 181
 56 ?36 17 180 0 182 183 184 59 185 186 0 187 -18 181 344 0 188 59 189 176 ?36 1
7 188 0 190 191 192 181 193 194 0 184 -18 189 331 0 195 181 196 197 ?36 29 176 3
46 0 181 197 56 .045 -.0779422863405996 .02707749250789955 29 197 333 0 189 198
 176 .11 -.1905255888325765 .05 29 198 286 0 196 199 197 .0404569367828594 -.230
676295101264 .05 18 196 284 0 200 189 201 198 ?36 29 199 276 0 201 202 198 -.002
892428122529685 -.105592992609287 .0270774925078996 18 201 274 0 203 196 204 199
 ?36 29 202 267 0 204 205 199 -.0199519052838328 -.1154422863405996 .00743493808
492447 18 204 264 0 206 201 207 202 ?36 29 205 263 0 207 208 202 .02339745962155
63 -.2405255888325765 .0303574455770249 18 207 260 0 209 204 210 205 ?36 29 208
 117 0 210 211 205 -.0199519052838328 -.1154422863405994 14210854715202e-30 18 2
10 115 0 212 207 213 208 ?36 29 211 87 0 213 214 208 .0233974596215563 -.2405255
888325765 21316282072803e-30 18 213 85 0 215 210 216 211 ?36 29 214 410 0 216 0
 211 .11 -.1905255888325765 208166817117217e-31 18 216 382 0 217 213 0 214 ?36 1
7 217 0 218 195 215 216 219 220 0 221 +15 218 338 0 195 222 0 17 195 0 218 223 2
17 189 178 58 0 192 -17 215 0 218 217 209 213 224 225 0 219 +17 219 0 226 227 22
1 213 217 220 0 228 -16 220 46 0 ?217 229 225 230 0 0 36 17 221 0 226 219 187 21
6 231 232 0 178 -15 226 361 0 221 172 0 17 187 0 226 221 227 59 183 233 0 231 +1
7 231 0 234 185 178 59 221 232 0 0 +16 232 378 0 ?231 235 186 236 0 0 36 17 178
 0 234 231 193 216 195 58 0 0 +15 234 397 0 178 237 0 17 193 0 234 178 185 189 1
88 194 0 0 +17 185 0 234 193 231 181 180 186 0 0 +16 194 380 0 ?193 186 0 238 0
 0 36 16 186 379 0 ?185 232 194 239 0 0 36 30 238 403 0 194 0 239 0 +.045 -.0779
422863405996 .02707749250789955 .492403876506104 -.852868531952443 .173648177666
9305 30 239 402 0 186 238 236 0 +.045 -.0779422863405996 14210854715202e-30 -937
978818479614e-31 1624626970030115e-31 1 30 236 401 0 232 239 240 0 +.11 -.190525
5888325765 21316282072803e-30 -.5 .866025403784439 -546571335200077e-31 30 240 2
26 0 235 236 241 0 +-.0199519052838328 -.1154422863405996 107696897754123e-31 .3
274565831508365 -.944866226590399 762860234483451e-31 16 235 162 0 ?228 242 232
 240 0 0 36 30 241 217 0 242 240 243 0 +-.0199519052838328 -.1154422863405996 .0
5 0 0 -1 16 242 265 0 ?212 225 235 241 0 0 36 30 243 216 0 225 241 230 0 +.02339
74596215563 -.2405255888325765 .05 0 0 -1 16 225 261 0 ?215 220 242 243 0 0 36 3
0 230 58 0 220 243 244 0 +-.1498076211353314 -.3405255888325765 21316282072803e-
30 .866025403784439 .5 0 30 244 59 0 229 230 245 0 +-.1498076211353314 -.3405255
888325765 .05 .866025403784439 .5 0 16 229 285 0 ?192 246 220 244 0 0 36 30 245
 60 0 246 244 247 0 +-.2148076211353315 -.2279422863405995 .0270774925078996 .86
6025403784439 .5 0 16 246 275 0 ?184 233 229 245 0 0 36 30 247 61 0 233 245 248
 0 +-.2148076211353315 -.2279422863405995 14210854715202e-30 .866025403784439 .5
 0 16 233 49 0 ?187 249 246 247 0 0 36 30 248 270 0 249 247 250 0 +-.01887058337
505635 -.118562408531591 .00800672522896677 -.3226553172640585 .931012316744869
 -.1706153929473595 16 249 268 0 ?251 252 233 248 0 0 36 32 250 279 0 252 248 25
3 0 +-.002314029148758805 -.1052590538060812 .00676896027018468 -.5 .86602540378
4439 -1875957636959225e-31 -.638319921852801 -.368534178710815 .675818197807502
 .020669527838308 .02 16 252 277 0 ?203 254 249 250 0 0 36 30 253 289 0 254 250
 175 0 -.04163962428547145 -.2340889046969425 .0506253877813114 -.32265531726405
85 .931012316744869 -.1706153929473595 16 254 287 0 ?200 179 252 253 0 0 36 32 1
75 294 0 179 253 55 0 +.0410353357566303 -.2303423562980585 .02969146776228515 .
5 -.866025403784439 0 -.6383199218528 -.368534178710815 .675818197807502 .020669
527838308 .02 16 179 292 0 ?209 58 254 175 0 0 36 17 209 0 218 215 223 207 255 1
79 0 224 +17 223 0 218 209 195 196 192 229 0 255 -17 255 0 256 257 258 196 209 1
79 0 0 -17 224 0 259 251 228 207 215 225 0 258 -15 259 194 0 224 260 0 17 251 0
 259 212 224 204 258 249 0 261 +17 228 0 259 224 212 213 227 235 0 0 +17 258 0 2
56 255 206 207 251 249 0 0 -15 256 310 0 255 262 0 17 206 0 256 258 257 204 203
 252 0 251 -17 257 0 256 206 255 201 200 254 0 0 -17 203 0 182 184 261 201 206 2
52 0 191 +15 182 355 0 180 263 0 17 184 0 182 180 203 181 191 246 0 185 +17 261
 0 182 203 183 204 212 242 0 0 -17 191 0 190 200 188 201 184 246 0 257 -15 190 3
48 0 188 264 0 17 200 0 190 192 191 196 257 254 0 223 +17 192 0 190 188 200 189
 223 229 0 193 +14 264 53 265 ?222 263 190 53 266 +0 0 222 263 177 81 1 265 498
 140 264 267 0 268 269 270 14 222 51 269 ?260 264 218 53 271 +0 0 260 264 177 14
 263 55 268 ?264 172 182 53 174 +0 0 264 172 177 50 266 63 0 264 271 174 0 +-.21
48076211353315 -.2279422863405995 .0270774925078996 -.0868240888334652 .15038373
31804355 .984807753012208 0 -.988540820816138 .1509537862398815 13 177 66 0 0 0
 0 0 0 57 172 14 172 57 272 ?263 0 226 53 54 +0 0 263 0 177 81 1 272 494 140 172
 273 0 0 268 274 81 1 273 493 155 172 0 272 0 275 276 81 1 268 496 140 263 275 0
 272 265 277 83 3 274 .8039216 .4588235 .1921569 81 1 275 495 155 263 0 268 273
 267 278 83 3 277 .8039216 .4588235 .1921569 81 1 267 497 155 264 0 265 275 279
 280 83 1 278 0 81 1 279 499 155 222 0 269 267 281 282 83 1 280 0 81 1 269 500 1
40 222 279 0 265 283 284 81 1 281 501 155 260 0 283 279 285 286 83 1 282 0 14 26
0 192 283 ?262 222 259 53 287 -0 0 262 222 177 81 1 283 502 140 260 281 0 269 28
8 289 81 1 285 503 155 262 0 288 281 290 291 83 1 286 0 14 262 309 288 ?237 260
 256 53 292 +0 0 237 260 177 81 1 288 504 140 262 285 0 283 293 294 81 1 290 505
 155 237 0 293 285 0 295 83 1 291 0 14 237 395 293 ?0 262 234 53 296 -0 0 0 262
 177 81 1 293 506 140 237 290 0 288 0 297 83 1 295 0 83 3 297 .827451 .5137255 .
5058824 50 296 400 0 237 0 292 0 +0 0 -.057 -.866025403784439 -.5 0 .5 -.8660254
03784439 0 51 292 321 0 262 296 287 0 +.001288624363057456 -.115654403310643 .00
867399053524823 .3226553172640585 -.931012316744869 .1706153929473595 .02 .94486
6226590399 .3274565831508365 0 50 287 208 0 260 292 271 0 +-.0199519052838328 -.
1154422863405996 .05 .944866226590399 .3274565831508365 0 -.3274565831508365 .94
4866226590399 0 50 271 62 0 222 287 266 0 +-.1498076211353314 -.3405255888325765
 .05 .5 -.866025403784439 0 .866025403784439 .5 0 83 3 294 .8039216 .4588235 .19
21569 83 3 289 .8039216 .4588235 .1921569 83 3 284 .8039216 .4588235 .1921569 83
 1 276 0 50 174 64 0 263 266 54 0 +-.2148076211353315 -.2279422863405995 1421085
4715202e-30 -.5 .866025403784439 -1875957636959225e-31 -.866025403784439 -.5 0 8
3 3 270 .8039216 .4588235 .1921569 17 183 0 182 261 180 210 187 233 0 0 -17 212
 0 259 228 251 210 261 242 0 227 +17 227 0 226 187 219 210 228 235 0 183 -19 173
 67 0 36 0 57 53 S74 20 171 3 0 50 290 293 0 0 0 0 0 0 0 0 0 0 0 0 0 0 0 0 0 83
 1 169 2710 84 8 170 Kg/Cu M 81 2 34 325 78 20 0 0 0 0 298 299 70 35 0 20 0 0 4
 3 20 4 300 300 1 T13 37 274 0 20 0 301 0 0 302 0 50 38 91 0 303 304 0 0 +.05386
75134594813 -.0266346035225553 .05 -.2390564956260975 -.971005660075661 0 -.9710
05660075661 .2390564956260975 0 30 39 252 0 42 305 0 0 +.009 -.01558845726811985
 290067554008081e-32 .5 -.866025403784439 1150169343672888e-31 29 40 249 0 43 30
6 0 .045 -.0779422863405996 1082279406755496e-32 19 41 302 0 20 302 0 307 V16 42
 250 0 ?308 0 309 39 0 0 20 18 43 247 0 310 0 311 40 ?20 17 310 0 312 313 314 43
 315 316 0 317 +18 311 116 0 318 43 319 306 ?20 17 318 0 320 321 315 311 322 309
 0 323 -18 319 43 0 315 311 324 325 ?20 29 306 118 0 311 325 40 .109951905283833
 -.0404422863405996 .02707749250789955 29 325 56 0 319 326 306 .109951905283833
 -.0404422863405996 107696897754123e-31 29 326 225 0 324 327 325 .05386751345948
13 -.02663460352255525 7105427357601e-30 18 324 159 0 328 319 329 326 ?20 29 327
 311 0 329 330 326 .045 -.0779422863405995 .0270774925078996 18 329 291 0 321 32
4 331 327 ?20 29 330 313 0 331 0 327 .025 -.04330127018922195 501706047489443e-3
2 18 331 287 0 332 329 0 330 ?20 17 332 0 333 334 335 331 336 337 0 338 -15 333
 267 0 334 339 0 17 334 0 333 340 332 329 338 341 0 342 +17 335 0 333 332 340 32
4 323 343 0 0 -17 336 0 312 314 313 324 332 337 0 335 +16 337 37 0 ?336 309 316
 344 0 0 20 17 338 0 345 308 342 331 334 341 0 313 -15 345 301 0 308 301 0 17 30
8 0 345 342 338 43 313 42 0 0 +17 342 0 345 338 308 329 317 346 0 0 +16 341 285
 0 ?334 347 346 348 0 0 20 17 313 0 312 336 310 331 308 42 0 0 -15 312 36 0 336
 349 0 14 349 35 350 ?0 351 312 37 352 -0 0 0 351 307 81 1 350 372 140 349 353 0
 354 0 355 14 351 75 354 ?349 303 320 37 304 -0 0 349 303 307 50 352 49 0 349 35
6 304 0 +.009 -.0155884572681199 290067554008081e-32 -527487333777764e-31 102355
6206215684e-31 1 .866025403784439 -.5 968595534333907e-31 13 307 303 0 0 0 0 0 0
 41 301 14 301 299 357 ?339 0 345 37 358 -0 0 339 0 307 81 1 357 364 140 301 359
 0 0 360 361 14 339 190 360 ?303 301 333 37 356 +0 0 303 301 307 50 358 304 0 30
1 0 356 0 +0 0 -.057 .866025403784439 .5 0 .5 -.866025403784439 0 50 356 205 0 3
39 358 352 0 +.2848076211353315 .106698729810778 7105427357601e-30 -.28028724808
16215 .485471754391031 .828103999659056 .747105967265671 -.4313418313140105 .505
743905781081 81 1 360 366 140 339 362 0 357 363 364 14 303 79 363 ?351 339 365 3
7 38 -0 0 351 339 307 81 1 363 368 140 303 366 0 360 354 367 15 365 126 0 323 30
3 0 17 323 0 365 322 328 311 335 343 0 340 +17 322 0 365 328 323 319 318 309 0 0
 +17 328 0 365 323 322 324 314 368 0 336 -16 343 142 0 ?323 368 347 369 0 0 20 1
7 340 0 333 335 334 311 321 347 0 0 -17 321 0 320 317 318 329 340 347 0 334 +16
 347 153 0 ?321 343 341 370 0 0 20 30 370 216 0 347 348 369 0 +.3048076211353315
 .0720577136594005 .0270774925078996 -.866025403784439 -.5 0 30 348 305 0 341 37
1 370 0 +.025 -.04330127018922195 -1221245327087674e-33 .4140519998295285 -.7171
59100680243 .560574496163243 30 369 211 0 343 370 344 0 +.0725270379559704 -.031
22848048907315 .00900880117122489 .879188642624976 -.2164516279789915 .424471463
6162215 30 344 55 0 337 369 372 0 +.025 -.04330127018922195 34529035099548e-31 .
86602540378444 .5 883533507082001e-31 30 372 52 0 316 344 373 0 +.045 -.07794228
63405996 104636933205843e-31 -.866025403784438 -.5 1507208710739515e-32 16 316 4
0 0 ?310 337 368 372 0 0 20 30 373 50 0 368 372 305 0 +.0538675134594813 -.02663
46035225553 639801520022814e-32 .971005660075661 -.2390564956260975 756880946450
693e-31 16 368 42 0 ?314 316 343 373 0 0 20 30 305 80 0 309 373 39 0 +.109951905
283833 -.0404422863405996 .05 0 0 -1 16 309 62 0 ?322 42 337 305 0 0 20 17 314 0
 312 310 336 319 328 368 0 322 +30 371 306 0 346 0 348 0 +.045 -.077942286340599
5 .05 0 0 1 16 346 284 0 ?342 341 0 371 0 0 20 15 320 120 0 315 351 0 17 317 0 3
20 315 321 43 342 346 0 308 -17 315 0 320 318 317 319 310 316 0 314 -81 1 366 36
7 155 303 0 363 362 374 375 81 1 354 370 140 351 374 0 363 350 376 83 3 367 .803
9216 .4588235 .1921569 81 1 374 369 155 351 0 354 366 353 377 83 3 376 .8039216
 .4588235 .1921569 81 1 353 371 155 349 0 350 374 0 378 83 1 377 0 83 1 378 0 81
 1 362 365 155 339 0 360 359 366 379 83 1 375 0 81 1 359 363 155 301 0 357 0 362
 380 83 1 379 0 83 1 380 0 83 3 364 .8039216 .4588235 .1921569 83 3 361 .8039216
 .4588235 .1921569 50 304 89 0 351 352 38 0 +.045 -.0779422863405996 .05 -.5 .86
6025403784438 0 .866025403784438 .5 0 83 3 355 .8039216 .4588235 .1921569 19 302
 93 0 20 0 41 37 S74 20 300 3 0 34 353 350 0 0 0 0 0 0 0 0 0 0 0 0 0 0 0 0 0 83
 1 298 2710 84 8 299 Kg/Cu M 81 2 18 424 78 8 0 0 0 0 381 382 70 19 0 8 0 0 4 3
 20 4 383 383 1 T13 21 3 0 8 0 384 0 0 385 0 50 22 65 0 384 386 0 0 +.3698076211
353315 -.0405255888325765 21316282072803e-30 2732856676000385e-32 -4733446612636
47e-31 -1 -.866025403784439 .5 -473344661263647e-31 30 23 339 0 26 387 0 0 +.11
 -.1905255888325765 .05 0 0 -1 29 24 353 0 27 388 0 .045 -.0779422863405996 1421
0854715202e-30 19 25 1 0 8 385 0 389 V16 26 337 0 ?390 0 391 23 0 0 8 18 27 351
 0 392 0 393 24 ?8 17 392 0 394 395 396 27 397 398 0 399 -18 393 344 0 396 27 40
0 388 ?8 17 396 0 394 392 401 393 402 403 0 404 -18 400 331 0 401 393 405 406 ?8
 29 388 346 0 393 406 24 .045 -.0779422863405996 .02707749250789955 29 406 333 0
 400 407 388 .11 -.1905255888325765 .05 29 407 286 0 405 408 406 .17954306321714
05 -.150374882563889 .05 18 405 284 0 409 400 410 407 ?8 29 408 276 0 410 411 40
7 .0928924281225298 -.0502915800719122 .0270774925078996 18 410 274 0 412 405 41
3 408 ?8 29 411 267 0 413 414 408 .109951905283833 -.0404422863405996 .007434938
08492447 18 413 264 0 415 410 416 411 ?8 29 414 263 0 416 417 411 .1966025403784
44 -.1405255888325766 .0303574455770249 18 416 260 0 418 413 419 414 ?8 29 417 1
17 0 419 420 414 .109951905283833 -.04044228634059955 14210854715202e-30 18 419
 115 0 421 416 422 417 ?8 29 420 87 0 422 423 417 .196602540378444 -.14052558883
25766 21316282072803e-30 18 422 85 0 424 419 425 420 ?8 29 423 410 0 425 0 420 .
11 -.1905255888325765 208166817117217e-31 18 425 382 0 390 422 0 423 ?8 17 390 0
 426 427 428 425 401 26 0 429 +15 426 338 0 390 430 0 17 427 0 426 431 390 422 4
29 432 0 433 -17 428 0 426 390 409 400 434 435 0 402 +17 401 0 394 396 395 400 3
90 26 0 428 -17 429 0 436 437 433 425 427 432 0 395 +15 436 361 0 437 384 0 17 4
37 0 436 438 429 27 395 439 0 0 +17 433 0 436 429 438 422 440 441 0 0 +16 432 46
 0 ?429 435 442 443 0 0 8 17 395 0 394 401 392 425 437 439 0 0 -15 394 397 0 401
 444 0 16 439 378 0 ?437 441 398 445 0 0 8 16 441 162 0 ?433 446 439 447 0 0 8 1
6 398 379 0 ?397 439 403 448 0 0 8 30 445 401 0 439 448 447 0 +.11 -.19052558883
25765 21316282072803e-30 -.5 .866025403784439 -546571335200077e-31 30 448 402 0
 398 449 445 0 +.045 -.0779422863405996 14210854715202e-30 -937978818479614e-31
 1624626970030115e-31 1 30 447 226 0 441 445 450 0 +.109951905283833 -.040442286
3405996 107696897754123e-31 .654549863829811 -.756018832940275 762860234483451e-
31 30 450 217 0 446 447 451 0 +.109951905283833 -.0404422863405996 .05 0 0 -1 16
 446 265 0 ?421 442 441 450 0 0 8 30 451 216 0 442 450 443 0 +.196602540378444 -
.1405255888325766 .05 0 0 -1 16 442 261 0 ?424 432 446 451 0 0 8 30 443 58 0 432
 451 452 0 +.3698076211353315 -.0405255888325765 21316282072803e-30 -.8660254037
84439 -.5 0 30 452 59 0 435 443 453 0 +.3698076211353315 -.0405255888325765 .05
 -.866025403784439 -.5 0 16 435 285 0 ?428 454 432 452 0 0 8 30 453 60 0 454 452
 455 0 +.3048076211353315 .0720577136594005 .0270774925078996 -.866025403784439
 -.5 0 16 454 275 0 ?404 456 435 453 0 0 8 30 455 61 0 456 453 457 0 +.304807621
1353315 .0720577136594005 14210854715202e-30 -.866025403784439 -.5 0 16 456 49 0
 ?399 458 454 455 0 0 8 30 457 270 0 458 455 459 0 +.1121133494097548 -.04293879
96787643 .00800672522896677 -.644952658905232 .744933859789237 -.170615392947359
5 16 458 268 0 ?415 460 456 457 0 0 8 32 459 279 0 460 457 461 0 +.0923140291487
589 -.0506255188751178 .00676896027018468 .5 -.866025403784439 1875957636959225e
-31 .6383199218528 .3685341787108155 .675818197807502 .020669527838308 .02 16 46
0 277 0 ?462 463 458 459 0 0 8 30 461 289 0 463 459 387 0 -.181907126068891 -.15
3105424783729 .0506253877813114 -.644952658905232 .744933859789237 -.17061539294
73595 16 463 287 0 ?464 391 460 461 0 0 8 32 387 294 0 391 461 23 0 +.1789646642
4337 -.150708821367095 .02969146776228515 -.5 .866025403784439 0 .6383199218528
 .368534178710815 .675818197807502 .020669527838308 .02 16 391 292 0 ?465 26 463
 387 0 0 8 17 465 0 466 415 464 416 409 391 0 431 +15 466 310 0 465 467 0 17 415
 0 466 462 465 413 418 458 0 468 +17 464 0 466 465 462 405 412 463 0 434 +17 409
 0 426 428 431 405 465 391 0 464 -17 431 0 426 409 427 416 424 442 0 0 -17 424 0
 469 440 418 422 431 442 0 427 +15 469 194 0 424 470 0 17 440 0 469 468 424 419
 433 441 0 438 -17 418 0 469 424 468 416 415 458 0 465 -17 468 0 469 418 440 413
 421 446 0 471 -17 421 0 472 399 471 419 468 446 0 440 +17 471 0 472 421 473 413
 462 460 0 0 -15 472 355 0 397 474 0 17 473 0 472 471 397 410 404 454 0 0 -17 46
2 0 466 464 415 410 471 460 0 473 +17 397 0 472 473 399 393 392 398 0 0 +17 404
 0 475 402 412 393 473 454 0 397 +15 475 348 0 402 476 0 17 402 0 475 434 404 40
0 396 403 0 0 +17 412 0 475 404 434 410 464 463 0 462 -17 434 0 475 412 402 405
 428 435 0 0 -16 403 380 0 ?402 398 0 449 0 0 8 30 449 403 0 403 0 448 0 +.045 -
.0779422863405996 .02707749250789955 .492403876506104 -.852868531952443 .1736481
776669305 14 476 53 477 ?430 474 475 21 478 +0 0 430 474 389 81 1 477 481 140 47
6 479 0 480 481 482 14 430 51 481 ?470 476 426 21 483 +0 0 470 476 389 14 474 55
 480 ?476 384 472 21 386 +0 0 476 384 389 50 478 63 0 476 483 386 0 +.3048076211
353315 .0720577136594005 .0270774925078996 -.0868240888334653 .1503837331804355
 .984807753012208 .856101463504697 -.494270410408069 .1509537862398815 13 389 66
 0 0 0 0 0 0 25 384 14 384 57 484 ?474 0 436 21 22 +0 0 474 0 389 81 1 484 477 1
40 384 485 0 0 480 486 81 1 485 476 155 384 0 484 0 487 488 81 1 480 479 140 474
 487 0 484 477 489 83 3 486 .40015 .40015 .40015 81 1 487 478 155 474 0 480 485
 479 490 83 3 489 .40015 .40015 .40015 81 1 479 480 155 476 0 477 487 491 492 83
 1 490 0 81 1 491 482 155 430 0 481 479 493 494 83 1 492 0 81 1 481 483 140 430
 491 0 477 495 496 81 1 493 484 155 470 0 495 491 497 498 83 1 494 0 14 470 192
 495 ?467 430 469 21 499 -0 0 467 430 389 81 1 495 485 140 470 493 0 481 500 501
 81 1 497 486 155 467 0 500 493 502 503 83 1 498 0 14 467 309 500 ?444 470 466 2
1 504 +0 0 444 470 389 81 1 500 487 140 467 497 0 495 505 506 81 1 502 488 155 4
44 0 505 497 0 507 83 1 503 0 14 444 395 505 ?0 467 394 21 508 -0 0 0 467 389 81
 1 505 489 140 444 502 0 500 0 509 83 1 507 0 83 3 509 .40015 .40015 .40015 50 5
08 400 0 444 0 504 0 +0 0 -.057 .866025403784439 .5 0 .5 -.866025403784439 0 51
 504 321 0 467 508 499 0 +.0995153391450191 -.0589431830896647 .0086739905352482
3 .644952658905232 -.744933859789237 .1706153929473595 .02 -.756018832940275 -.6
54549863829811 0 50 499 208 0 470 504 483 0 +.109951905283833 -.0404422863405996
 .05 -.756018832940275 -.654549863829811 0 -.654549863829811 .756018832940275 0
 50 483 62 0 430 499 478 0 +.3698076211353315 -.0405255888325765 .05 .5 -.866025
403784439 0 -.866025403784439 -.5 0 83 3 506 .40015 .40015 .40015 83 3 501 .4001
5 .40015 .40015 83 3 496 .40015 .40015 .40015 83 1 488 0 50 386 64 0 474 478 22
 0 +.3048076211353315 .0720577136594005 14210854715202e-30 -.5 .866025403784439
 -1875957636959225e-31 .866025403784439 .5 0 83 3 482 .40015 .40015 .40015 17 39
9 0 472 397 421 27 438 456 0 437 +17 438 0 436 433 437 419 399 456 0 0 -19 385 6
7 0 8 0 25 21 S74 20 383 3 0 18 502 505 0 0 0 0 0 0 0 0 0 0 0 0 0 0 0 0 0 83 1 3
81 2710 84 8 382 Kg/Cu M 81 2 6 294 78 3 0 0 0 0 510 511 70 7 0 3 0 0 4 3 20 4 5
12 512 1 T13 9 118 0 3 0 513 0 0 514 0 50 10 247 0 515 516 0 0 +-.07794228634059
95 .015 -.08 -.409576022144496 .709406479916222 -.573576436351046 0 .62873126398
7386 .777622657646255 30 11 235 0 517 518 0 0 +-.0779422863405995 .015 -.08 -.86
6025403784439 -.5 0 29 12 250 0 15 519 0 208166817117217e-31 208166817117217e-31
 -.154208747252167 19 13 1 0 3 514 0 520 V16 14 78 0 ?521 0 522 523 0 0 3 18 15
 248 0 524 0 525 12 ?3 17 524 0 526 521 527 15 528 522 0 529 -18 525 53 0 530 15
 531 519 ?3 17 530 0 532 533 534 525 527 517 0 521 +18 531 55 0 528 525 535 536
 ?3 29 519 217 0 525 536 12 -.0519615242270664 .03 -.08 29 536 216 0 531 537 519
 -958281111827652e-32 .06 -.08 29 537 215 0 535 538 536 .0519615242270663 .03 -.
08 18 535 56 0 539 531 540 537 ?3 29 538 214 0 540 541 537 .0519615242270663 -.0
3 -.08 18 540 57 0 542 535 543 538 ?3 29 541 213 0 544 545 538 353879180952063e-
31 -.06 -.08 18 544 60 0 546 543 0 541 ?3 29 545 212 0 543 0 541 -.0519615242270
663 -.03 -.08 18 543 59 0 547 540 544 545 ?3 17 547 0 548 549 550 543 551 552 0
 553 +15 548 100 0 549 513 0 17 549 0 548 550 547 525 533 554 0 0 +17 550 0 548
 547 549 15 521 14 0 0 -17 551 0 555 546 553 15 547 552 0 550 -16 552 84 0 ?547
 556 557 558 0 0 3 17 553 0 555 551 546 543 559 557 0 533 +15 555 86 0 553 560 0
 17 546 0 555 553 551 544 561 556 0 562 +17 559 0 532 563 533 544 553 557 0 0 -1
6 557 45 0 ?553 552 564 565 0 0 3 17 533 0 532 559 530 543 549 554 0 0 -15 532 4
4 0 533 566 0 16 554 52 0 ?549 517 0 567 0 0 3 16 517 50 0 ?530 568 554 11 0 0 3
 30 567 230 0 554 569 565 0 --.0519615242270663 -.03 -.08 1156482317317872e-30 -
1 0 30 569 229 0 522 570 567 0 +-910118391360277e-32 .06 -.08 1181414738388972e-
31 .628731263987386 .777622657646255 30 565 231 0 557 567 571 0 --.0519615242270
663 -.03 -.08 .866025403784438 -.5 0 30 571 232 0 564 565 572 0 --.0259807621135
331 -.075 -.08 .866025403784439 .5 0 16 564 46 0 ?562 557 573 571 0 0 3 30 572 2
33 0 573 571 518 0 +.0519615242270663 -.03 -.08 -693889390390723e-30 1 0 16 573
 48 0 ?574 564 568 572 0 0 3 30 518 234 0 568 572 11 0 +117961196366423e-30 .06
 -.08 -.866025403784438 .5 0 16 568 49 0 ?534 573 517 518 0 0 3 17 534 0 532 530
 574 531 575 568 0 0 +17 574 0 532 534 563 535 576 573 0 0 +17 575 0 577 529 528
 535 534 568 0 574 -15 577 94 0 575 578 0 17 529 0 577 528 575 15 539 579 0 580
 -17 528 0 577 575 529 531 524 522 0 527 +16 522 80 0 ?528 14 579 569 0 0 3 17 5
27 0 526 524 521 531 530 517 0 534 -15 526 96 0 527 515 0 17 521 0 526 527 524 5
25 550 14 0 549 +14 515 97 581 ?578 513 526 9 10 +0 0 578 513 520 81 1 581 298 1
40 515 582 0 583 584 585 14 578 95 584 ?586 515 577 9 516 +0 0 586 515 520 14 51
3 101 583 ?515 0 548 9 587 -0 0 515 0 520 13 520 3 0 0 0 0 0 0 13 513 81 1 583 2
96 140 513 588 0 0 581 589 50 587 242 0 513 590 591 0 --.0519615242270663 -.03 -
.08 -.819152044288992 -947334854415005e-30 -.573576436351046 -.573576436351046 0
 .819152044288992 50 590 61 0 566 0 587 0 +-.0519615242270663 .03 -.08 0 0 -1 -1
 0 0 50 591 243 0 560 587 592 0 --.0519615242270663 -.03 -.08 -.4095760221444965
 -.709406479916222 -.573576436351046 0 .628731263987386 -.777622657646255 14 560
 87 593 ?566 594 555 9 591 -0 0 566 594 520 50 592 244 0 594 591 595 0 --.025980
7621135331 -.075 -.08 .409576022144496 -.709406479916222 -.573576436351046 0 .62
8731263987386 -.777622657646255 14 594 89 596 ?560 586 597 9 592 -0 0 560 586 52
0 50 595 245 0 586 592 516 0 +.0519615242270663 -.03 -.08 .819152044288992 56840
0912649003e-30 -.573576436351046 -.573576436351046 0 -.819152044288992 14 586 93
 598 ?594 578 599 9 595 +0 0 594 578 520 50 516 246 0 578 595 10 0 +117961196366
423e-30 .06 -.08 .4095760221444965 .709406479916222 -.573576436351046 0 .6287312
63987386 .777622657646255 81 1 598 302 140 586 600 0 584 596 601 15 599 92 0 576
 586 0 17 576 0 599 580 539 540 574 573 0 0 -17 580 0 599 539 576 15 542 602 0 5
61 -17 539 0 599 576 580 535 529 579 0 575 +16 579 81 0 ?539 522 602 570 0 0 3 1
6 602 82 0 ?542 579 556 603 0 0 3 30 570 228 0 579 603 569 0 +.0416912509611503
 .0240704549652724 -.0946674702934148 .544497246766576 .3143656319936925 .777622
657646255 30 603 227 0 602 604 570 0 -.0519615242270663 -.03 -.08 -.544497246766
576 .3143656319936925 -.777622657646255 30 604 226 0 556 558 603 0 +346944695195
3615e-32 -.0481409099305448 -.0946674702934148 0 -.628731263987386 .777622657646
255 16 556 85 0 ?546 602 552 604 0 0 3 30 558 225 0 552 523 604 0 +-.05196152422
70663 -.03 -.08 -.544497246766576 -.314365631993693 .777622657646255 30 523 224
 0 14 0 558 0 --.0416912509611503 .0240704549652724 -.0946674702934148 .54449724
6766576 -.3143656319936925 -.777622657646255 17 542 0 597 562 561 540 580 602 0
 563 +15 597 88 0 562 594 0 17 562 0 597 561 542 544 563 564 0 559 +17 561 0 597
 542 562 15 546 556 0 551 -17 563 0 532 574 559 540 562 564 0 576 -81 1 600 301
 155 586 0 598 605 606 607 81 1 584 300 140 578 605 0 581 598 608 81 1 596 304 1
40 594 606 0 598 593 609 83 3 601 .5529412 .2941176 .8078431 81 1 606 303 155 59
4 0 596 600 610 611 81 1 593 306 140 560 610 0 596 612 613 83 3 609 .5529412 .29
41176 .8078431 81 1 610 305 155 560 0 593 606 614 615 81 1 612 308 140 566 614 0
 593 0 616 83 3 613 .5529412 .2941176 .8078431 14 566 43 612 ?0 560 532 9 590 -0
 0 0 560 520 81 1 614 307 155 566 0 612 610 0 617 83 3 616 .5529412 .2941176 .80
78431 83 1 617 0 83 1 615 0 83 1 611 0 81 1 605 299 155 578 0 584 582 600 618 83
 3 608 .5529412 .2941176 .8078431 81 1 582 297 155 515 0 581 588 605 619 83 1 61
8 0 81 1 588 295 155 513 0 583 0 582 620 83 1 619 0 83 1 620 0 83 1 607 0 83 3 5
89 .5529412 .2941176 .8078431 83 3 585 .5529412 .2941176 .8078431 19 514 119 0 3
 0 13 9 S74 20 512 3 0 6 614 612 0 0 0 0 0 0 0 0 0 0 0 0 0 0 0 0 0 83 1 510 2710
 84 8 511 Kg/Cu M 1 0 
